<svg width="21" height="10" viewBox="0 0 21 10" fill="none" xmlns="http://www.w3.org/2000/svg">
<path d="M10.6323 5.82302C9.96918 6.51272 9.32724 7.1918 8.66407 7.85497C7.67728 8.85237 6.47828 9.31394 5.07236 9.26619C2.87596 9.19191 0.96604 7.40402 0.71669 5.23414C0.430202 2.72472 2.23401 0.427508 4.79649 0.151631C6.23423 -0.00222353 7.4969 0.422203 8.54735 1.42491C9.20522 2.05094 9.84716 2.69819 10.4944 3.34014C10.5528 3.3985 10.5899 3.48338 10.6323 3.55235C10.6642 3.54705 10.6907 3.54174 10.7225 3.53643C10.8127 3.43033 10.9029 3.3136 11.0037 3.2128C11.6828 2.54964 12.3247 1.84403 13.0463 1.23391C14.415 0.0773513 15.996 -0.198515 17.6672 0.422208C19.3331 1.03763 20.3252 2.26845 20.6276 4.01921C21.0308 6.4013 19.3278 8.77279 16.9457 9.18661C15.3116 9.46779 13.8951 9.02744 12.712 7.86557C12.0913 7.25546 11.4706 6.64005 10.8499 6.02994C10.8021 5.97688 10.7491 5.92913 10.6323 5.82302ZM11.9109 4.63994C12.5953 5.34555 13.2585 6.06177 13.9535 6.74616C14.7015 7.4836 15.6141 7.73294 16.6433 7.54725C18.1447 7.27668 19.2217 5.78589 18.9829 4.311C18.7973 3.17036 18.1606 2.36925 17.073 1.97666C15.9748 1.57876 14.9403 1.76446 14.0702 2.54434C13.3168 3.21812 12.6112 3.95556 11.9109 4.63994ZM9.41743 4.64524C9.44396 4.66646 9.47048 4.68238 9.4917 4.70361C9.45457 4.66116 9.41743 4.61871 9.37499 4.57627C8.74365 3.95024 8.10701 3.32422 7.47568 2.69819C6.75415 1.98197 5.89469 1.69018 4.88137 1.8122C3.32161 1.99789 2.12791 3.54705 2.37726 5.0909C2.56825 6.24746 3.2208 7.05387 4.32962 7.43585C5.44904 7.82314 6.46767 7.5897 7.35366 6.80451C7.54995 6.62943 7.74095 6.43844 7.92663 6.24745C8.43064 5.71161 8.92403 5.17577 9.41743 4.64524Z" fill="black"/>
</svg>
