<svg width="21" height="21" viewBox="0 0 21 21" fill="none" xmlns="http://www.w3.org/2000/svg">
<path d="M13.9729 8.81596C13.3132 9.98735 12.6597 11.1526 12 12.3055C11.9013 12.4719 11.852 12.6631 11.8397 12.8542C11.8397 13.1255 11.8767 13.4029 11.9445 13.668C12.1788 14.7284 12.7953 15.6655 13.6831 16.3005C14.5647 16.9356 15.6498 17.2192 16.7349 17.1082C17.8138 16.991 18.8187 16.4855 19.5462 15.6779C20.2737 14.8702 20.6806 13.8221 20.6868 12.737C20.6868 12.5028 20.6251 12.2685 20.4957 12.0712C19.5832 10.6532 18.6708 9.23519 17.7706 7.80486L17.2281 6.9294L17.2034 6.88624L18.5166 6.47933C18.9975 6.33137 19.4846 6.18957 19.9655 6.0416C20.1196 6.00461 20.2614 5.91213 20.36 5.78266C20.4587 5.65319 20.508 5.4929 20.5018 5.3326C20.5018 5.17847 20.4464 5.0305 20.3477 4.91336C20.2491 4.79623 20.1134 4.71608 19.9655 4.68525C19.7928 4.66059 19.6202 4.67292 19.4538 4.72841L14.0962 6.36836L11.2663 7.24382L11.106 1.23889V1.2019C11.1122 1.14641 11.1122 1.08476 11.106 1.02927C11.0999 0.936793 11.0814 0.844319 11.0444 0.764171C11.0074 0.677858 10.9519 0.603869 10.8841 0.542217C10.8163 0.480565 10.7361 0.431247 10.6498 0.400421C10.5635 0.369595 10.471 0.351095 10.3785 0.35726C10.2861 0.35726 10.1936 0.381921 10.1134 0.418912C10.0271 0.455904 9.95313 0.511397 9.89148 0.579214C9.82983 0.647032 9.78051 0.727175 9.74968 0.813489C9.71886 0.899802 9.70036 0.992282 9.70652 1.08476C9.70652 1.14025 9.70652 1.19574 9.70652 1.25739L9.74352 2.47194C9.78668 4.18587 9.83599 5.89363 9.88531 7.6014C9.88531 7.70005 9.88532 7.71238 9.78667 7.73704L5.98273 8.90227L1.36497 10.3141C1.21701 10.3449 1.07521 10.4128 0.95807 10.5114C0.84093 10.61 0.74845 10.7333 0.686798 10.8751V11.2574V11.2882C0.723789 11.393 0.785437 11.4855 0.85942 11.5656C0.939568 11.6458 1.03205 11.7074 1.13069 11.7444C1.22934 11.7814 1.34648 11.7999 1.45129 11.7938C1.56226 11.7876 1.66707 11.7568 1.76571 11.7013L3.55979 11.1526L0.791604 16.0601V16.6273C0.816265 16.7383 0.840929 16.8554 0.871755 16.9664C0.914912 17.176 0.970394 17.3918 1.04438 17.5952C1.04438 17.6384 1.07521 17.6816 1.0937 17.7247C1.38347 18.4892 1.88285 19.1489 2.5302 19.6421C3.17755 20.1353 3.95437 20.4312 4.76818 20.5052H4.86682H4.95313L5.71146 20.4806H5.76078L5.90258 20.4436C6.02588 20.4066 6.14919 20.3758 6.27249 20.3388C6.56226 20.271 6.84586 20.1723 7.11713 20.0428C7.84462 19.7037 8.46115 19.1674 8.89888 18.4954C9.33661 17.8234 9.58322 17.0465 9.60172 16.2451C9.62638 15.9553 9.54623 15.6655 9.38593 15.4251C8.56596 14.1427 7.74598 12.8665 6.93217 11.5841L6.1122 10.3079L14.5771 7.68772L13.9729 8.81596ZM13.3625 13.4954L19.1825 13.3412C19.1023 14.4695 17.7275 15.6347 16.3588 15.7025C14.9901 15.7703 13.5598 14.6914 13.3625 13.4954ZM16.0999 7.89117L18.6646 11.9047L13.7632 12.0342L16.0999 7.89117ZM5.05177 11.2882L7.61652 15.3079L2.70899 15.4436L5.05177 11.2882ZM2.32058 16.9171L8.12206 16.7629C7.98026 17.4288 7.62268 18.0206 7.09247 18.4522C6.56843 18.8776 5.90874 19.1181 5.23057 19.1181C4.57089 19.1365 3.91738 18.9269 3.39333 18.5262C2.86929 18.1193 2.48704 17.5583 2.32058 16.9171Z" fill="black"/>
</svg>
