<svg width="23" height="22" viewBox="0 0 23 22" fill="none" xmlns="http://www.w3.org/2000/svg">
<path d="M2.62996 11.7861L2.23152 11.9209C1.98633 12.0006 1.735 12.0864 1.47755 12.16C1.29978 12.1968 1.13428 12.2703 0.99942 12.3868C0.858434 12.5033 0.754226 12.6504 0.686798 12.8159V13.1959V13.245C0.895213 13.6679 1.14041 13.8641 1.47142 13.8641C1.63692 13.8579 1.7963 13.8273 1.95568 13.7721L2.21313 13.6863L3.12647 13.386C3.23681 13.3614 3.34715 13.3063 3.4391 13.2388C3.53104 13.1653 3.61073 13.0795 3.6659 12.9752C3.72107 12.871 3.75785 12.7607 3.77011 12.6442C3.78237 12.5278 3.77011 12.4113 3.73333 12.301C3.69655 12.1906 3.63525 12.0987 3.56169 12.0129C3.48814 11.927 3.39619 11.8596 3.29198 11.8106C3.18777 11.7615 3.07744 11.737 2.9671 11.7309C2.85063 11.7309 2.7403 11.7493 2.62996 11.7861Z" fill="black"/>
<path d="M22.6868 12.8159C22.6194 12.6504 22.5152 12.5094 22.3803 12.3929C22.2455 12.2765 22.0861 12.2029 21.9144 12.16C21.6692 12.0926 21.4179 12.0068 21.1789 11.9271L20.7253 11.78C20.621 11.737 20.5046 11.7187 20.3881 11.7248C20.2716 11.7309 20.1613 11.7554 20.0571 11.8045C19.9529 11.8535 19.8609 11.9209 19.7874 12.0068C19.7138 12.0926 19.6525 12.1968 19.6219 12.301C19.5851 12.4113 19.5728 12.5278 19.5851 12.6443C19.5974 12.7607 19.6341 12.8711 19.6893 12.9753C19.7445 13.0795 19.8242 13.1653 19.9161 13.2327C20.0081 13.3002 20.1184 13.3553 20.2287 13.3798L21.4179 13.766C21.5773 13.8212 21.7367 13.8518 21.9083 13.858C22.2516 13.858 22.4723 13.6679 22.6868 13.2389V12.8465V12.8159Z" fill="black"/>
<path d="M19.9713 7.66678C19.9774 7.23769 19.8242 6.82087 19.5483 6.49598C19.2725 6.1711 18.8863 5.95043 18.4634 5.883C17.4213 5.72362 16.2995 5.55811 15.0368 5.38035C14.9877 5.38035 14.9448 5.36809 14.9081 5.33744C14.8713 5.31292 14.8406 5.27001 14.8222 5.2271C14.338 4.23407 13.8476 3.24104 13.3633 2.248C13.2898 2.10089 13.204 1.9599 13.112 1.83118C12.9281 1.59211 12.6829 1.40209 12.4071 1.28562C12.1312 1.16302 11.8247 1.12011 11.5244 1.15076C11.2179 1.18141 10.9237 1.28562 10.6662 1.46339C10.4087 1.64115 10.2065 1.87408 10.0655 2.15605C9.7835 2.71387 9.50766 3.27781 9.22569 3.84176C8.99888 4.29537 8.77208 4.75511 8.53301 5.2455C8.50237 5.30066 8.45946 5.34357 8.39816 5.36809C7.80356 5.46617 7.2151 5.55199 6.6205 5.63168L6.00139 5.72363L5.65199 5.76653C5.37002 5.80331 5.07578 5.84009 4.79381 5.90139C4.48119 5.96268 4.18696 6.11594 3.95402 6.33661C3.72109 6.55728 3.55558 6.83925 3.46976 7.14575C3.36556 7.45224 3.34717 7.77712 3.42686 8.08974C3.50041 8.40237 3.66592 8.69047 3.89272 8.91114C4.57927 9.59769 5.29033 10.2781 5.97687 10.9524L6.40596 11.3692C6.43661 11.3937 6.46113 11.4244 6.47339 11.4612C6.48565 11.4979 6.48565 11.5408 6.47339 11.5776C6.28949 12.6197 6.07495 13.8273 5.89105 15.0226C5.85427 15.28 5.87266 15.5498 5.94009 15.8011C6.01365 16.0585 6.13625 16.2915 6.31401 16.4938C6.49178 16.696 6.70632 16.8493 6.95152 16.9535C7.2151 17.0638 7.49707 17.119 7.78517 17.1006C8.06715 17.0822 8.34912 16.9964 8.59431 16.8554C9.07857 16.598 9.56283 16.3405 10.0532 16.0831C10.5375 15.8256 11.0095 15.5804 11.4815 15.323C11.5428 15.2862 11.6102 15.2678 11.6776 15.2678C11.7451 15.2678 11.8186 15.2862 11.8738 15.323C13.0078 15.9359 13.9518 16.4325 14.8406 16.8922C15.1042 17.0332 15.3923 17.1067 15.6865 17.1129C16.0727 17.1067 16.4405 16.9719 16.7409 16.7389C17.0167 16.5489 17.2313 16.2792 17.3539 15.9666C17.4765 15.654 17.5132 15.3107 17.4458 14.9797C17.2374 13.7169 17.0474 12.6013 16.8696 11.5776C16.8573 11.5347 16.8573 11.4918 16.8696 11.4489C16.8819 11.406 16.9125 11.3753 16.9432 11.3447L18.3101 10.0329L19.3828 8.9847C19.5667 8.81306 19.7138 8.61078 19.8119 8.37784C19.91 8.15104 19.9652 7.89971 19.9652 7.64839L19.9713 7.66678ZM15.1594 11.4489C15.2881 12.1722 15.4107 12.8955 15.5333 13.6189L15.7907 15.1391V15.1697C15.8214 15.323 15.8153 15.3597 15.7907 15.372C15.6988 15.3904 15.6007 15.3781 15.5149 15.3291C14.8713 14.9981 14.2276 14.6609 13.584 14.3177L12.2661 13.625C12.1496 13.5637 12.027 13.5208 11.9106 13.4717L11.7451 13.4104H11.7021H11.6592L11.506 13.4656C11.4018 13.5024 11.2976 13.5392 11.1995 13.5943L8.68626 14.9123L7.90777 15.323L7.86486 15.3475H7.7913C7.74226 15.3536 7.69936 15.3536 7.65032 15.3475C7.61354 15.2984 7.60128 15.2433 7.60741 15.182C7.77291 14.1522 7.99972 12.8036 8.24491 11.4489C8.28782 11.2589 8.28169 11.0627 8.22652 10.8788C8.17135 10.6949 8.06102 10.5294 7.92003 10.4007C7.28866 9.79997 6.65728 9.18086 6.03204 8.574L5.29646 7.85068L5.25355 7.8139L5.21677 7.78325L5.19225 7.72195C5.16773 7.67904 5.14934 7.63 5.13708 7.58709C5.17386 7.53805 5.22903 7.50741 5.29033 7.48902C5.983 7.37868 6.6818 7.2806 7.37447 7.1764L8.33073 7.04154L9.19504 6.91281C9.34215 6.88829 9.48314 6.827 9.59961 6.73505C9.71608 6.6431 9.80802 6.5205 9.86932 6.37952C10.28 5.53973 10.6907 4.70607 11.1014 3.87241L11.555 2.95906C11.5734 2.92228 11.5918 2.88551 11.6102 2.85486C11.6225 2.83034 11.6408 2.81195 11.6592 2.79969C11.6776 2.78743 11.7021 2.77517 11.7267 2.76904C11.7573 2.77517 11.7818 2.7813 11.8002 2.79969C11.8247 2.81808 11.8431 2.83646 11.8493 2.86711L11.9044 2.97133L12.358 3.88467C12.7626 4.7122 13.1733 5.5336 13.5717 6.36726C13.6453 6.52664 13.7556 6.66149 13.8966 6.7657C14.0376 6.86991 14.2031 6.9312 14.3809 6.94346C15.5088 7.09671 16.6918 7.27447 18.1201 7.48902C18.1998 7.50128 18.2672 7.53806 18.3224 7.59936C18.3101 7.67291 18.2733 7.74647 18.2182 7.80164C17.1638 8.84371 16.3118 9.6835 15.5272 10.4375C15.38 10.5539 15.2636 10.7072 15.2023 10.885C15.1349 11.075 15.1226 11.265 15.1594 11.4489Z" fill="black"/>
<path d="M5.28415 2.5607C5.36997 2.67104 5.48644 2.76299 5.6213 2.81816C5.75002 2.87333 5.89714 2.89785 6.03812 2.87946H6.06877C6.1975 2.86107 6.3201 2.81816 6.42431 2.73847C6.52851 2.66491 6.61433 2.56684 6.6695 2.45037C6.74919 2.31551 6.7921 2.15614 6.78597 2.00289C6.77984 1.84351 6.72467 1.69027 6.63272 1.56767C6.28945 1.07728 6.01361 0.697235 5.74389 0.341704C5.68259 0.255886 5.59678 0.1762 5.50483 0.121031C5.41288 0.0658625 5.30867 0.0290805 5.19834 0.0106909C5.088 -0.00769858 4.98379 -0.00156425 4.87345 0.0229551C4.76925 0.0474745 4.66504 0.0965102 4.57922 0.157809C4.48728 0.219107 4.41372 0.298798 4.35855 0.390746C4.29725 0.482693 4.26047 0.586895 4.24208 0.691102C4.22369 0.801439 4.22369 0.911779 4.24821 1.01599C4.27273 1.12019 4.31564 1.2244 4.37694 1.31022C4.68343 1.7577 4.99605 2.16839 5.28415 2.5607Z" fill="black"/>
<path d="M17.4213 2.87939C17.5439 2.88552 17.6665 2.861 17.7768 2.80583C17.8871 2.75066 17.9852 2.67711 18.0588 2.57903C18.3714 2.16833 18.6901 1.72698 18.9905 1.28563C19.107 1.10787 19.1499 0.893322 19.107 0.684907C19.0641 0.476493 18.9476 0.292596 18.776 0.169999C18.6043 0.0412725 18.3959 -0.0138946 18.1814 0.0106248C17.973 0.0351442 17.7768 0.145483 17.6481 0.310989C17.3538 0.678779 17.0596 1.09561 16.7041 1.60438C16.6244 1.73311 16.5815 1.8741 16.5815 2.02734C16.5815 2.17446 16.6244 2.32158 16.7041 2.45031C16.7715 2.57903 16.8757 2.68937 17.0044 2.76293C17.127 2.83648 17.2742 2.87939 17.4213 2.87939Z" fill="black"/>
<path d="M12.5297 18.6944C12.5235 18.4737 12.4377 18.2653 12.2784 18.1121C12.119 17.9588 11.9106 17.873 11.6899 17.873C11.5796 17.873 11.4753 17.8914 11.3711 17.9343C11.2669 17.9772 11.1811 18.0385 11.1014 18.1121C11.0217 18.1917 10.9604 18.2837 10.9175 18.3818C10.8746 18.4798 10.8562 18.5902 10.8562 18.7005C10.8562 19.1541 10.8562 19.6629 10.8562 20.1901C10.8562 20.4107 10.942 20.6192 11.0953 20.7785C11.2485 20.9379 11.457 21.0237 11.6776 21.0299C11.8983 21.0299 12.1128 20.9379 12.2661 20.7847C12.4255 20.6253 12.5113 20.4169 12.5113 20.1901C12.5113 20.0123 12.5113 19.8407 12.5113 19.6629V19.2093C12.5297 19.0315 12.5297 18.8599 12.5297 18.6944Z" fill="black"/>
</svg>
