<svg width="21" height="21" viewBox="0 0 21 21" fill="none" xmlns="http://www.w3.org/2000/svg">
<path d="M20.6653 2.55726L20.6581 2.49995C20.6367 2.44265 20.6223 2.38534 20.608 2.32087C20.5722 2.18477 20.522 2.02718 20.4576 1.87675C20.0349 0.995659 19.2971 0.515712 18.3372 0.501385C17.6137 0.487058 16.8831 0.494223 16.1739 0.494223H3.24411C1.90457 0.494223 1.0593 1.14609 0.729785 2.42832L0.686798 2.47846L0.693968 15.967L0.729785 16.1103C0.751275 16.1962 0.779927 16.2822 0.80858 16.3681C1.13809 17.371 2.02634 18.0014 3.12233 18.0014C4.67677 18.0014 6.23122 18.0014 7.78566 18.0014C7.87878 18.0014 7.92176 18.0157 7.97906 18.0802C8.55213 18.6604 9.16101 19.2693 9.906 20C10.0134 20.1002 10.1281 20.1934 10.2355 20.2722C10.2785 20.308 10.3286 20.3438 10.4003 20.4011L10.4432 20.4369H10.873L10.959 20.4154L11.002 20.3796C11.045 20.3438 11.0951 20.308 11.1452 20.265C11.2599 20.179 11.3745 20.0859 11.4819 19.9785C12.0836 19.3839 12.714 18.7535 13.4232 18.0444C13.459 18.0085 13.4877 17.9942 13.5521 17.9942C14.6983 17.9942 15.8372 18.0014 16.9834 17.9942H18.1152C19.4547 17.9942 20.3 17.3495 20.6366 16.0744L20.6796 16.0243V15.967L20.6868 15.9383L20.6653 2.55726ZM4.38308 16.361H3.17248C2.59941 16.361 2.33436 16.0959 2.33436 15.53V2.96557C2.33436 2.41399 2.59941 2.14895 3.14382 2.14895H18.2011C18.7455 2.14895 19.0106 2.41399 19.0106 2.96557V15.5444C19.0106 16.0816 18.7384 16.3538 18.194 16.3538H16.8186C15.6295 16.3538 14.4404 16.3538 13.2441 16.3467C12.9218 16.3467 12.6495 16.4613 12.4275 16.6905C12.0765 17.0487 11.7183 17.4068 11.353 17.765L10.6725 18.4455L10.3143 18.0945C9.86302 17.6432 9.43322 17.2206 9.01775 16.7836C8.73121 16.4828 8.4017 16.3467 7.95757 16.3467C6.76846 16.3681 5.55786 16.3681 4.38308 16.361Z" fill="black"/>
<path d="M10.6725 12.9011C10.6725 12.9011 10.6796 12.9011 10.7083 12.9154C11.1811 13.1661 11.6467 13.4097 12.1195 13.6604C12.4776 13.8466 12.8358 14.0329 13.194 14.2263C13.3516 14.3122 13.5092 14.3552 13.6596 14.3552C13.8243 14.3552 13.9819 14.3051 14.1252 14.2048C14.4046 14.0042 14.5192 13.7034 14.4547 13.3309L14.3329 12.6217C14.2183 11.9555 14.1037 11.2822 13.9819 10.616C13.9676 10.5228 13.9748 10.5014 14.0392 10.4369C14.4762 10.0214 14.9132 9.59878 15.3716 9.15465L16.0235 8.52428C16.3028 8.25207 16.3888 7.92972 16.267 7.60021C16.0951 7.12743 15.6438 7.07012 15.5006 7.04863C15.1137 6.99849 14.7341 6.94118 14.3473 6.88387C13.8315 6.81224 13.3086 6.73345 12.7928 6.66181C12.7212 6.65465 12.7069 6.64033 12.671 6.56869C12.4633 6.1389 12.2556 5.70909 12.0407 5.28646C11.8544 4.9068 11.6682 4.53431 11.4819 4.15465C11.3602 3.90393 11.1453 3.56726 10.6653 3.56726C10.1496 3.57442 9.93465 4.00422 9.87018 4.14749C9.65528 4.59878 9.43321 5.04291 9.21115 5.4942C9.0249 5.87385 8.83866 6.2535 8.62376 6.65465C8.21545 6.71196 7.80714 6.76926 7.39884 6.83373L7.31287 6.84806C6.84009 6.91969 6.36016 6.98416 5.88738 7.04863C5.61517 7.08445 5.23551 7.18474 5.08508 7.61454C4.906 8.12313 5.24984 8.45264 5.36445 8.56009C5.69396 8.87528 6.01631 9.19047 6.34582 9.51282C6.6825 9.84233 7.01918 10.1647 7.35586 10.4942C7.37735 10.5157 7.3845 10.53 7.3845 10.5443C7.32003 10.9025 7.25557 11.2607 7.19826 11.6188L6.89024 13.4168L6.88307 13.4526C6.87591 13.7965 7.01917 14.083 7.27705 14.2406C7.52777 14.3982 7.84296 14.3982 8.12949 14.2478C8.96044 13.7965 9.80571 13.3595 10.6725 12.9011ZM8.96761 10.9813C8.99626 10.7879 9.03207 10.5945 9.06788 10.4011C9.12519 10.093 9.03924 9.81368 8.79568 9.58445C8.54497 9.3409 8.29425 9.09734 8.04353 8.85379L7.62806 8.45264L8.09367 8.38101C8.47333 8.3237 8.86015 8.27357 9.23981 8.21626C9.56216 8.17328 9.80571 7.99419 9.94898 7.70049C10.1496 7.29218 10.3501 6.88388 10.5507 6.47557L10.6653 6.23917L10.7513 6.41826C10.9518 6.82657 11.1596 7.23488 11.353 7.64319C11.5177 7.98703 11.7828 8.17328 12.1696 8.22342C12.6352 8.28073 13.1008 8.35235 13.5736 8.42399L13.7097 8.44548L13.5951 8.56009C13.2513 8.88961 12.9146 9.22628 12.5708 9.5558C12.3129 9.79935 12.2198 10.093 12.2771 10.4369C12.363 10.8882 12.4347 11.3466 12.5135 11.8051L12.5493 12.0128L12.0837 11.7693C11.7685 11.6045 11.4461 11.4398 11.1309 11.2678C10.8229 11.1031 10.5149 11.1031 10.1997 11.2678C9.80571 11.4827 9.41172 11.6905 8.99625 11.9054L8.78135 12.0128L8.96761 10.9813Z" fill="black"/>
</svg>
