<svg width="351" height="367" viewBox="0 0 351 367" fill="none" xmlns="http://www.w3.org/2000/svg">
<g clip-path="url(#clip0_10_9)">
<path d="M321.471 99.2954C321.418 67.2626 300.566 41.6626 269.255 36.4113C258.691 34.639 247.667 35.5055 236.854 35.256C231.802 35.1379 226.75 35.2298 221.277 35.2298C221.277 28.6919 221.304 22.6005 221.277 16.4958C221.238 6.80724 216.487 1.94981 206.934 1.93668C185.793 1.91043 164.665 1.91043 143.524 1.93668C134.128 1.94981 129.352 6.76786 129.299 16.1808C129.26 22.3116 129.299 28.4294 129.299 35.2166C120.087 35.2166 111.373 35.0985 102.673 35.256C95.5076 35.3873 88.2113 35.0591 81.2299 36.3194C49.9318 41.9908 29.1189 67.3151 29.0927 99.3873C29.0271 165.317 29.0533 231.247 29.1189 297.177C29.1189 301.207 29.3814 305.303 30.1294 309.241C35.956 340.224 60.9288 361.032 92.5418 361.111C133.38 361.229 174.219 361.15 215.057 361.137C230.975 361.137 246.906 361.465 262.811 360.927C292.535 359.916 318.636 334.96 320.893 305.29C321.799 293.474 321.471 281.554 321.484 269.673C321.536 212.88 321.562 156.088 321.484 99.2954H321.471ZM154.364 29.2696C154.364 28.6526 154.561 28.0224 154.692 27.2216H196.055C196.121 28.6788 196.226 29.9522 196.226 31.2125C196.226 47.0058 196.239 62.7859 196.226 78.5791C196.226 84.3686 195.215 85.3663 189.376 85.3663C179.468 85.3663 169.547 85.327 159.639 85.3795C156.017 85.4057 154.364 83.6465 154.351 80.1413C154.351 63.1797 154.351 46.2181 154.364 29.2564V29.2696ZM296.419 296.704C296.38 316.672 284.32 331.822 265.606 335.432C262.693 335.997 259.636 336.049 256.657 336.049C202.394 336.089 148.13 336.102 93.8673 336.062C70.0098 336.049 54.1443 320.151 54.1443 296.271C54.118 230.879 54.1049 165.488 54.1443 100.096C54.1574 76.3604 70.2329 60.3834 93.9985 60.3178C104.3 60.2915 114.615 60.3178 124.916 60.3178H129.299C129.299 67.0919 129.273 73.2228 129.299 79.3405C129.391 98.2057 141.569 110.389 160.44 110.454C170.479 110.494 180.531 110.507 190.57 110.454C208.942 110.349 221.133 98.1269 221.277 79.695C221.33 73.4459 221.277 67.1969 221.277 61.1842C221.776 60.7904 221.986 60.4884 222.183 60.4884C235.345 60.4884 248.573 59.7926 261.683 60.7247C282.469 62.182 296.367 78.2771 296.419 99.768C296.498 130.567 296.432 161.379 296.432 192.177C296.432 227.033 296.471 261.875 296.419 296.73V296.704Z" fill="black"/>
<path d="M203.627 240.292C202.38 239.872 201.107 239.478 199.375 238.914C227.498 223.029 233.416 195.341 227.393 174.717C220.739 151.9 200.333 136.278 176.358 135.556C153.34 134.873 131.858 149.787 124.076 171.934C120.244 182.843 119.942 193.963 123.171 205.03C127.541 220.036 137.068 230.998 151.214 238.743C146.411 240.529 142.304 241.815 138.393 243.561C115.586 253.762 99.2345 270.382 89.5498 293.422C86.7021 300.183 89.6941 307.338 96.1112 310.056C102.397 312.707 109.326 309.924 112.475 303.465C113.105 302.179 113.63 300.84 114.234 299.54C127.042 272.246 157.697 256.414 187.027 262.059C210.622 266.601 227.274 280.045 237.405 301.798C238.534 304.214 240.109 306.655 242.09 308.362C246.25 311.959 252.588 311.854 256.972 308.638C261.761 305.133 263.467 299.133 260.961 293.278C249.728 267.113 230.581 249.469 203.64 240.306L203.627 240.292ZM174.94 219.143C158.93 218.998 146.083 205.883 146.149 189.762C146.214 173.693 159.206 160.67 175.242 160.631C191.383 160.591 204.493 173.811 204.428 190.064C204.349 206.33 191.213 219.3 174.954 219.156L174.94 219.143Z" fill="black"/>
</g>
<defs>
<clipPath id="clip0_10_9">
<rect width="292.47" height="359.292" fill="white" transform="translate(29.0532 1.93689)"/>
</clipPath>
</defs>
</svg>