<svg width="109" height="109" viewBox="0 0 109 109" fill="none" xmlns="http://www.w3.org/2000/svg">
<path d="M13.6779 0.239258H94.4158C101.977 0.239258 108.094 6.35634 108.094 13.9172V94.845C108.094 102.406 101.977 108.523 94.4158 108.523H13.6779C6.11707 108.523 0 102.406 0 94.845V13.9172C0 6.35634 6.11707 0.239258 13.6779 0.239258Z" fill="#8A5BA6"/>
<path d="M39.476 70.4338C39.9699 70.6808 40.4258 70.9657 40.8818 71.2697C42.4775 72.5615 44.2633 73.5873 46.182 74.3092C46.6379 74.4612 47.0558 74.7271 47.3598 75.1071C47.6638 75.487 47.8727 75.924 47.9487 76.4179C48.3097 78.1656 48.7466 79.9134 49.1075 81.6611C49.1075 81.7941 49.1455 81.9271 49.2025 82.041C49.2595 82.155 49.3545 82.269 49.4495 82.345C49.5445 82.421 49.6775 82.497 49.7914 82.516C49.9244 82.554 50.0574 82.554 50.1714 82.535C52.888 82.535 55.6236 82.535 58.3211 82.535C59.005 82.535 59.328 82.288 59.442 81.6421C59.8219 79.7994 60.2779 77.9946 60.6768 76.1519C60.7338 75.772 60.9048 75.392 61.1517 75.0881C61.3987 74.7841 61.7216 74.5562 62.0826 74.4232C64.1153 73.6443 66.034 72.5425 67.7247 71.1557C68.0477 70.8707 68.4276 70.6808 68.8456 70.6048C69.2635 70.5288 69.6814 70.5668 70.0804 70.6998C71.8661 71.3077 73.7088 71.8396 75.5136 72.4285C75.6085 72.4855 75.7225 72.5045 75.8365 72.5235C75.9505 72.5235 76.0645 72.5045 76.1785 72.4665C76.2924 72.4285 76.3874 72.3715 76.4634 72.2765C76.5394 72.2005 76.6154 72.1055 76.6534 71.9916C78.0592 69.5789 79.465 67.1663 80.8708 64.7726C80.9468 64.6777 81.0037 64.5637 81.0227 64.4307C81.0417 64.2977 81.0607 64.1837 81.0418 64.0507C81.0228 63.9178 80.9657 63.8038 80.9088 63.7088C80.8518 63.6138 80.7568 63.5188 80.6428 63.4428C79.237 62.189 77.9072 60.9162 76.5204 59.7004C76.2165 59.4534 75.9695 59.1305 75.8365 58.7695C75.6846 58.4086 75.6465 58.0097 75.7035 57.6107C76.0455 55.3311 76.0455 53.0324 75.7035 50.7527C75.6465 50.3728 75.6846 49.9739 75.8175 49.6129C75.9505 49.252 76.1975 48.929 76.5014 48.6821C77.9072 47.4282 79.218 46.1554 80.6238 44.9206C80.7378 44.8446 80.8328 44.7496 80.9088 44.6357C80.9847 44.5217 81.0228 44.3887 81.0418 44.2557C81.0607 44.1227 81.0417 43.9898 81.0037 43.8568C80.9657 43.7238 80.8898 43.6098 80.8138 43.5148C79.408 41.1592 78.0022 38.7845 76.6914 36.4479C76.6534 36.3339 76.5774 36.2199 76.4824 36.1439C76.3875 36.049 76.2924 35.992 76.1785 35.935C76.0645 35.897 75.9315 35.878 75.8175 35.878C75.6846 35.878 75.5706 35.916 75.4566 35.973C73.6519 36.5619 71.8281 37.1128 70.0234 37.7017C69.6435 37.8347 69.2445 37.8727 68.8456 37.7967C68.4466 37.7207 68.0857 37.5497 67.7817 37.2838C66.053 35.859 64.0963 34.7381 61.9876 33.9403C61.6267 33.8263 61.3037 33.5983 61.0567 33.3134C60.8098 33.0284 60.6388 32.6675 60.5818 32.3065C60.1829 30.4448 59.7269 28.6211 59.347 26.7593C59.347 26.6264 59.309 26.4934 59.252 26.3794C59.195 26.2654 59.1 26.1514 59.0051 26.0754C58.8911 25.9995 58.7771 25.9235 58.6441 25.9045C58.5111 25.8665 58.3782 25.8665 58.2452 25.8855C55.5476 25.8855 52.831 25.8855 50.1334 25.8855C49.2785 25.8855 49.1835 25.9615 48.9746 26.7973C48.5756 28.6021 48.1577 30.4068 47.7587 32.2115C47.6827 32.6105 47.5118 33.0094 47.2458 33.3134C46.9799 33.6363 46.6379 33.8643 46.239 33.9973C44.1873 34.7761 42.2876 35.878 40.5968 37.2838C40.2929 37.5497 39.9129 37.7397 39.514 37.8157C39.115 37.8917 38.6971 37.8537 38.3172 37.7017C36.5314 37.1128 34.7457 36.5809 32.941 35.992C32.827 35.935 32.694 35.897 32.561 35.897C32.428 35.897 32.2951 35.916 32.1811 35.954C32.0671 35.992 31.9531 36.068 31.8581 36.1629C31.7631 36.2579 31.6872 36.3719 31.6492 36.4859C30.3194 38.8605 28.9326 41.1972 27.5838 43.5528C27.1658 44.2747 27.1848 44.4267 27.8307 44.9586C29.2365 46.2124 30.5283 47.4472 31.8961 48.6821C32.2001 48.929 32.428 49.252 32.58 49.6129C32.713 49.9739 32.751 50.3728 32.694 50.7527C32.3521 52.9944 32.3521 55.2931 32.694 57.5347C32.751 57.9337 32.713 58.3326 32.58 58.7125C32.428 59.0925 32.1811 59.4154 31.8771 59.6624C30.4713 60.8972 29.1605 62.189 27.7548 63.4048C27.6598 63.4808 27.5648 63.5568 27.4888 63.6708C27.4318 63.7848 27.3748 63.8988 27.3558 64.0128C27.3368 64.1457 27.3558 64.2597 27.3748 64.3927C27.3938 64.5257 27.4698 64.6207 27.5458 64.7156C28.9326 67.0903 30.3194 69.4839 31.6872 71.8966C31.7251 72.0106 31.8011 72.1055 31.8961 72.2005C31.9911 72.2765 32.0861 72.3525 32.2001 72.3905C32.3141 72.4285 32.428 72.4475 32.561 72.4475C32.675 72.4475 32.808 72.4095 32.903 72.3715C34.6697 71.7826 36.4744 71.2317 38.2602 70.6807C38.5641 70.5858 38.8871 70.5288 39.362 70.3958M49.0316 86.4864C48.3477 86.2394 47.6828 85.9355 47.0369 85.5935C46.5239 85.2516 46.106 84.7956 45.764 84.2827C45.4411 83.7698 45.2131 83.1809 45.1181 82.573C44.8142 81.1672 44.4912 79.7424 44.1303 78.3366C44.0353 78.0516 43.8453 77.8237 43.5984 77.6717C42.1926 76.7978 40.6538 75.962 39.191 75.0881C39.058 74.9931 38.9061 74.9361 38.7541 74.8981C38.6021 74.8791 38.4311 74.8791 38.2792 74.9361C36.8734 75.392 35.4676 75.829 34.0618 76.2469C32.979 76.6648 31.7821 76.6648 30.6803 76.2469C29.5975 75.829 28.7046 75.0121 28.1727 73.9673L23.9553 66.6913C23.3284 65.7415 23.0814 64.5827 23.2524 63.4618C23.4234 62.341 23.9933 61.2962 24.8672 60.5743C25.95 59.5674 27.0518 58.5796 28.1157 57.5537C28.3247 57.3448 28.4386 57.0598 28.4386 56.7558C28.4386 55.0271 28.4386 53.2984 28.4386 51.5696C28.4386 51.2657 28.3247 50.9807 28.1157 50.7717C27.0518 49.7459 25.912 48.758 24.8102 47.7322C23.9553 47.0103 23.4044 45.9845 23.2334 44.8826C23.0625 43.7808 23.3094 42.641 23.8983 41.6911L28.2297 34.2062C28.7616 33.2374 29.6165 32.4775 30.6423 32.0785C31.6682 31.6796 32.808 31.6606 33.8528 32.0216C35.2586 32.4395 36.6644 32.8954 38.0702 33.4273C38.2412 33.4843 38.4311 33.5223 38.6021 33.4843C38.7731 33.4653 38.9441 33.3893 39.096 33.2754C40.5018 32.4015 42.0216 31.5846 43.4464 30.7108C43.7124 30.5778 43.9023 30.3498 43.9973 30.0649C44.3963 28.5451 44.7002 26.9873 45.0611 25.4485C45.2891 24.4037 45.878 23.4728 46.7139 22.8269C47.5498 22.162 48.5946 21.8201 49.6585 21.8581C52.622 21.8581 55.5666 21.8581 58.5111 21.8581C59.575 21.8391 60.6198 22.181 61.4557 22.8269C62.2915 23.4918 62.8805 24.4227 63.1084 25.4485C63.4694 26.9493 63.7923 28.4501 64.1153 29.9509C64.1533 30.1218 64.2293 30.2928 64.3433 30.4448C64.4572 30.5968 64.6092 30.6918 64.7802 30.7677C66.243 31.5656 67.6868 32.4015 69.0925 33.2754C69.2445 33.3893 69.4155 33.4463 69.6055 33.4843C69.7954 33.5033 69.9664 33.4843 70.1374 33.4273C71.5432 32.9714 72.949 32.5155 74.3547 32.0216C75.3996 31.6416 76.5394 31.6606 77.5843 32.0596C78.6101 32.4585 79.465 33.2184 79.9969 34.1872C81.4407 36.6759 82.8845 39.1835 84.3282 41.6911C84.9172 42.641 85.1641 43.7618 84.9931 44.8826C84.8222 45.9845 84.2713 46.9913 83.4164 47.7322C82.3336 48.758 81.2127 49.7459 80.1299 50.7717C79.9399 50.9997 79.8259 51.2847 79.8259 51.5696C79.8259 53.2794 79.8259 54.9701 79.8259 56.6799C79.8069 56.8508 79.8259 57.0218 79.9019 57.1928C79.9779 57.3448 80.0729 57.4967 80.2249 57.6107C81.3077 58.5796 82.3715 59.5864 83.4354 60.5743C84.3093 61.3152 84.8792 62.341 85.0501 63.4618C85.2211 64.5827 84.9741 65.7415 84.3472 66.6913C82.9414 69.123 81.5357 71.5546 80.1299 73.9673C79.598 75.0121 78.7241 75.829 77.6223 76.2469C76.5394 76.6648 75.3426 76.6648 74.2408 76.2469C72.835 75.81 71.4292 75.3351 70.0234 74.9361C69.7574 74.8791 69.4725 74.9171 69.2255 75.0691C67.8197 75.886 66.3379 76.7788 64.8562 77.5957C64.6662 77.6717 64.5142 77.8047 64.3812 77.9567C64.2483 78.1086 64.1723 78.2986 64.1343 78.5076C63.8303 79.9134 63.5074 81.3381 63.1844 82.7439C63.0135 83.6368 62.5765 84.4727 61.9306 85.1186C61.2847 85.7645 60.4678 86.2014 59.556 86.3724C59.48 86.3914 59.385 86.4294 59.309 86.4674L49.0316 86.4864Z" fill="#FFFDF4"/>
<path d="M52.3181 64.8296C52.0142 64.8296 51.7102 64.7726 51.4443 64.6396C51.1783 64.5066 50.9313 64.3167 50.7414 64.0697C50.5514 63.8227 50.4184 63.5378 50.3614 63.2338C50.3044 62.9299 50.3044 62.6259 50.3804 62.322C51.4063 57.7627 52.4701 53.2223 53.496 48.682C53.7619 47.5042 54.0279 46.3074 54.2938 45.1295C54.3318 44.8446 54.4268 44.5786 54.5788 44.3317C54.7308 44.0847 54.9397 43.8757 55.1677 43.7238C55.3957 43.5718 55.6806 43.4578 55.9466 43.4008C56.2315 43.3438 56.5165 43.3628 56.7824 43.4388C57.0484 43.5148 57.2764 43.6288 57.4854 43.7997C57.6943 43.9707 57.8653 44.1797 57.9983 44.4267C58.1313 44.6736 58.2072 44.9206 58.2262 45.2055C58.2642 45.4715 58.2262 45.7565 58.1503 46.0034C56.8585 51.7026 55.5476 57.4017 54.2368 63.1198C54.1608 63.5948 53.9329 64.0507 53.5529 64.3547C53.268 64.6776 52.793 64.8296 52.3181 64.8296Z" fill="#FFFDF4"/>
<path d="M42.0217 54.1533C43.6934 55.6161 45.3082 57.0409 46.9229 58.4277C47.1889 58.6556 47.3979 58.9216 47.5119 59.2445C47.6448 59.5675 47.6828 59.8904 47.6448 60.2324C47.6068 60.5933 47.4739 60.9353 47.2459 61.2202C47.0179 61.5052 46.714 61.7142 46.372 61.8472C46.0111 61.9991 45.6311 62.0371 45.2512 61.9611C44.8713 61.8851 44.5293 61.7142 44.2443 61.4482L39.856 57.6108C39.0961 56.9459 38.2982 56.224 37.5574 55.5971C37.3294 55.4071 37.1394 55.1792 37.0254 54.9322C36.8924 54.6662 36.8354 54.3813 36.8354 54.0963C36.8354 53.8114 36.8924 53.5264 37.0254 53.2604C37.1584 52.9945 37.3294 52.7665 37.5574 52.5955C39.761 50.6388 41.9837 48.6821 44.2443 46.7444C44.5103 46.4975 44.8523 46.3265 45.2322 46.2505C45.5931 46.1745 45.9731 46.1935 46.334 46.3265C46.695 46.4595 46.9989 46.6684 47.2269 46.9534C47.4549 47.2383 47.6068 47.5803 47.6638 47.9412C47.7018 48.2832 47.6448 48.6251 47.5119 48.9481C47.3789 49.271 47.1699 49.537 46.8849 49.746L42.6486 53.4314L41.9267 54.0773" fill="#FFFDF4"/>
<path d="M66.737 54.1532L64.5523 52.2345C63.6595 51.4367 62.7476 50.6578 61.8548 49.8409C61.4558 49.4989 61.2088 49.005 61.1708 48.4921C61.1329 47.9792 61.3228 47.4663 61.6648 47.0673C62.0067 46.6684 62.5007 46.4404 63.0326 46.4024C63.5645 46.3644 64.0774 46.5354 64.4764 46.8963C66.68 48.8151 68.8647 50.7528 71.0494 52.6905C71.2773 52.8614 71.4673 53.1084 71.6003 53.3554C71.7333 53.6213 71.7903 53.9063 71.7903 54.1912C71.7903 54.4762 71.7333 54.7612 71.6003 55.0271C71.4673 55.2931 71.2773 55.521 71.0494 55.692C68.8647 57.6297 66.68 59.5674 64.4764 61.4861C64.0774 61.8281 63.5645 62.0181 63.0326 61.9801C62.5007 61.9421 62.0067 61.7141 61.6648 61.3152C61.3038 60.9162 61.1329 60.4223 61.1708 59.8904C61.2088 59.3775 61.4368 58.8835 61.8357 58.5416L66.2241 54.6852C66.3761 54.5332 66.528 54.3622 66.737 54.1532Z" fill="#FFFDF4"/>
</svg>